<svg width="24" height="25" viewBox="0 0 24 25" fill="none" xmlns="http://www.w3.org/2000/svg">
<g id="file-icons:microsoft-powerpoint" clip-path="url(#clip0_239_2050)">
<path id="Vector" d="M22.9077 3.22055H14.1671V0.767578H12.6217L0 2.9535V22.0265L12.4718 24.2069H14.1671V21.4814H22.3463C22.8123 21.4596 23.3302 21.5059 23.7281 21.217C24.0442 20.7292 23.9676 20.1186 23.9949 19.5681V4.28897C24.0576 3.66211 23.5346 3.16059 22.9077 3.22055ZM7.99383 13.3921C7.37517 13.7082 6.66652 13.6646 5.99334 13.6428L5.99062 16.8398L4.36894 16.7035L4.37166 7.96837C5.85164 8.0392 7.64498 7.38239 8.87147 8.49164C10.0462 9.91711 9.73542 12.539 7.99383 13.3921ZM22.6925 20.1951H14.1671V18.4833H20.7082V17.3932H14.1671V16.0304H20.7082V14.9402H14.1698C14.1698 14.9402 14.1671 13.8718 14.1644 13.3376C15.2437 13.6728 16.4729 13.6647 17.4376 13.016C18.4815 12.3973 19.0266 11.2172 19.1166 10.0398H15.5298V6.48028L14.1671 6.75558V4.50684H22.6925V20.1951ZM16.0747 5.91061C17.9689 5.9978 19.5636 7.59909 19.6644 9.48787H16.0747V5.91061ZM5.99062 9.44283C6.52753 9.41831 7.19255 9.3202 7.55503 9.82439C7.86576 10.3586 7.84941 11.0618 7.59047 11.6123C7.27978 12.1738 6.57656 12.1193 6.03422 12.1847C5.97703 11.2717 5.98242 10.3586 5.99062 9.44283Z" fill="black"/>
</g>
<defs>
<clipPath id="clip0_239_2050">
<rect width="24" height="24" fill="white" transform="translate(0 0.488281)"/>
</clipPath>
</defs>
</svg>
