<svg width="25" height="25" viewBox="0 0 25 25" fill="none" xmlns="http://www.w3.org/2000/svg">
<g id="simple-icons:googleslides" clip-path="url(#clip0_239_2053)">
<path id="Vector" d="M16.5899 15.7613H8.40995V11.1243H16.5899V15.7613ZM18.318 7.23828H21.2279V22.8523C21.2279 23.7563 20.4949 24.4883 19.5909 24.4883H5.40895C5.19411 24.4883 4.98137 24.446 4.78288 24.3637C4.58439 24.2815 4.40404 24.161 4.25212 24.0091C3.94531 23.7023 3.77295 23.2862 3.77295 22.8523V2.12428C3.77295 1.22028 4.50495 0.488281 5.40895 0.488281H14.4769V7.23828H18.318ZM17.9549 9.76128H7.04495V17.1243H17.9549V9.76128ZM15.2269 3.78228V6.48828H21.2279L15.2279 0.488281L15.2269 3.78228Z" fill="black"/>
</g>
<defs>
<clipPath id="clip0_239_2053">
<rect width="24" height="24" fill="white" transform="translate(0.5 0.488281)"/>
</clipPath>
</defs>
</svg>
